<svg xmlns="http://www.w3.org/2000/svg" viewBox="0 0 1600 1000" fill="none">
  <rect width="1600" height="1000" fill="#F4EFE5"/>
  <rect x="100" y="690" width="1400" height="150" fill="#D7CEBE"/>
  <rect x="180" y="460" width="420" height="220" fill="#35566D"/>
  <rect x="640" y="390" width="310" height="290" fill="#7A4938"/>
  <rect x="990" y="310" width="430" height="370" fill="#58644C"/>
  <rect x="250" y="410" width="220" height="40" fill="#8F7445"/>
  <rect x="720" y="340" width="150" height="40" fill="#D7CEBE"/>
  <rect x="1060" y="250" width="230" height="50" fill="#8F7445"/>
  <rect x="260" y="520" width="120" height="90" fill="#F4EFE5"/>
  <rect x="400" y="520" width="120" height="90" fill="#D7CEBE"/>
  <rect x="720" y="470" width="150" height="120" fill="#F4EFE5"/>
  <rect x="1070" y="400" width="140" height="120" fill="#F4EFE5"/>
  <rect x="1240" y="400" width="120" height="120" fill="#D7CEBE"/>
  <path d="M180 680H1420" stroke="#203646" stroke-width="16"/>
  <path d="M260 450V680M720 380V680M1070 300V680" stroke="#203646" stroke-width="12"/>
  <circle cx="1340" cy="180" r="50" fill="#8F7445"/>
</svg>
