<svg xmlns="http://www.w3.org/2000/svg" viewBox="0 0 1600 1000" fill="none">
  <rect width="1600" height="1000" fill="#F4EFE5"/>
  <rect x="0" y="620" width="1600" height="380" fill="#D7CEBE"/>
  <path d="M0 560C220 510 310 540 480 500C700 450 860 300 1160 350C1330 380 1460 450 1600 430V680H0V560Z" fill="#35566D"/>
  <path d="M140 700H620L790 620H1140L1300 560H1520" stroke="#203646" stroke-width="18"/>
  <rect x="220" y="700" width="200" height="40" fill="#8F7445"/>
  <rect x="420" y="740" width="220" height="40" fill="#58644C"/>
  <rect x="640" y="700" width="240" height="40" fill="#D7CEBE"/>
  <rect x="860" y="660" width="180" height="40" fill="#7A4938"/>
  <rect x="1040" y="620" width="220" height="40" fill="#8F7445"/>
  <rect x="1260" y="580" width="150" height="40" fill="#58644C"/>
  <circle cx="350" cy="250" r="82" fill="#8F7445"/>
  <path d="M1080 160L1200 120L1350 220L1180 270L1080 160Z" fill="#D7CEBE" stroke="#203646" stroke-width="10"/>
</svg>
