<svg xmlns="http://www.w3.org/2000/svg" viewBox="0 0 1600 1000" fill="none">
  <rect width="1600" height="1000" fill="#F4EFE5"/>
  <rect x="110" y="130" width="1380" height="740" fill="#D7CEBE" stroke="#203646" stroke-width="14"/>
  <rect x="180" y="210" width="280" height="580" fill="#35566D"/>
  <rect x="500" y="210" width="280" height="580" fill="#7A4938"/>
  <rect x="820" y="210" width="280" height="580" fill="#58644C"/>
  <rect x="1140" y="210" width="280" height="580" fill="#8F7445"/>
  <path d="M180 370H1420M180 530H1420M180 690H1420" stroke="#F4EFE5" stroke-width="18"/>
  <path d="M340 210V790M660 210V790M980 210V790M1300 210V790" stroke="#F4EFE5" stroke-width="18"/>
  <circle cx="340" cy="450" r="70" fill="#F4EFE5"/>
  <rect x="578" y="430" width="164" height="164" fill="#F4EFE5"/>
  <path d="M910 594L1010 418L1110 594H910Z" fill="#F4EFE5"/>
  <rect x="1205" y="400" width="150" height="220" rx="75" fill="#F4EFE5"/>
  <rect x="110" y="842" width="1380" height="28" fill="#203646"/>
</svg>
