<svg xmlns="http://www.w3.org/2000/svg" viewBox="0 0 1600 1000" fill="none">
  <rect width="1600" height="1000" fill="#F4EFE5"/>
  <rect x="120" y="160" width="320" height="640" fill="#58644C"/>
  <rect x="470" y="160" width="260" height="640" fill="#D7CEBE"/>
  <rect x="760" y="160" width="300" height="640" fill="#7A4938"/>
  <rect x="1090" y="160" width="390" height="640" fill="#35566D"/>
  <rect x="180" y="240" width="200" height="40" fill="#F4EFE5"/>
  <rect x="180" y="340" width="200" height="40" fill="#F4EFE5"/>
  <rect x="180" y="440" width="200" height="40" fill="#F4EFE5"/>
  <rect x="180" y="540" width="200" height="40" fill="#F4EFE5"/>
  <rect x="180" y="640" width="200" height="40" fill="#F4EFE5"/>
  <rect x="530" y="230" width="140" height="130" fill="#203646"/>
  <rect x="530" y="390" width="140" height="130" fill="#8F7445"/>
  <rect x="530" y="550" width="140" height="130" fill="#58644C"/>
  <path d="M810 240H1010M810 380H1010M810 520H1010M810 660H1010" stroke="#F4EFE5" stroke-width="18"/>
  <rect x="1150" y="230" width="90" height="490" fill="#F4EFE5"/>
  <rect x="1270" y="230" width="90" height="490" fill="#D7CEBE"/>
  <rect x="1390" y="230" width="30" height="490" fill="#F4EFE5"/>
  <rect x="120" y="820" width="1360" height="26" fill="#203646"/>
</svg>
