<svg xmlns="http://www.w3.org/2000/svg" viewBox="0 0 1600 1000" fill="none">
  <rect width="1600" height="1000" fill="#F4EFE5"/>
  <rect x="100" y="160" width="1400" height="680" fill="#D7CEBE"/>
  <rect x="190" y="240" width="320" height="220" fill="#35566D"/>
  <rect x="560" y="240" width="340" height="220" fill="#58644C"/>
  <rect x="950" y="240" width="370" height="220" fill="#7A4938"/>
  <rect x="250" y="550" width="310" height="120" fill="#F4EFE5"/>
  <rect x="660" y="550" width="310" height="120" fill="#F4EFE5"/>
  <rect x="1070" y="550" width="230" height="120" fill="#F4EFE5"/>
  <path d="M250 670L180 820M560 670L630 820M660 670L590 820M970 670L1040 820M1070 670L1000 820M1300 670L1370 820" stroke="#203646" stroke-width="12"/>
  <rect x="220" y="300" width="120" height="24" fill="#F4EFE5"/>
  <rect x="600" y="290" width="170" height="20" fill="#F4EFE5"/>
  <rect x="1010" y="300" width="200" height="20" fill="#F4EFE5"/>
  <rect x="100" y="840" width="1400" height="26" fill="#203646"/>
</svg>
